<mxfile host="app.diagrams.net" agent="Mozilla/5.0 (Windows NT 10.0; Win64; x64) AppleWebKit/537.36 (KHTML, like Gecko) Chrome/129.0.0.0 Safari/537.36" version="24.8.0">
  <diagram name="Page-1" id="ghGs1HB1qicQgcvRpp9M">
    <mxGraphModel dx="3500" dy="1857" grid="1" gridSize="10" guides="1" tooltips="1" connect="1" arrows="1" fold="1" page="1" pageScale="1" pageWidth="850" pageHeight="1100" math="0" shadow="0">
      <root>
        <mxCell id="0" />
        <mxCell id="1" parent="0" />
        <mxCell id="zw1SAavDIwvE712rOxfx-1" value="User" style="swimlane;fontStyle=1;align=center;verticalAlign=top;childLayout=stackLayout;horizontal=1;startSize=24.06315853721217;horizontalStack=0;resizeParent=1;resizeParentMax=0;resizeLast=0;collapsible=0;marginBottom=0;" parent="1" vertex="1">
          <mxGeometry x="20" y="630" width="189" height="228.0631585372122" as="geometry" />
        </mxCell>
        <mxCell id="zw1SAavDIwvE712rOxfx-2" value="+int user_id" style="text;strokeColor=none;fillColor=none;align=left;verticalAlign=top;spacingLeft=4;spacingRight=4;overflow=hidden;rotatable=0;points=[[0,0.5],[1,0.5]];portConstraint=eastwest;" parent="zw1SAavDIwvE712rOxfx-1" vertex="1">
          <mxGeometry y="24.06315853721217" width="189" height="24" as="geometry" />
        </mxCell>
        <mxCell id="zw1SAavDIwvE712rOxfx-3" value="+String name" style="text;strokeColor=none;fillColor=none;align=left;verticalAlign=top;spacingLeft=4;spacingRight=4;overflow=hidden;rotatable=0;points=[[0,0.5],[1,0.5]];portConstraint=eastwest;" parent="zw1SAavDIwvE712rOxfx-1" vertex="1">
          <mxGeometry y="48.063158537212175" width="189" height="24" as="geometry" />
        </mxCell>
        <mxCell id="zw1SAavDIwvE712rOxfx-4" value="+String email" style="text;strokeColor=none;fillColor=none;align=left;verticalAlign=top;spacingLeft=4;spacingRight=4;overflow=hidden;rotatable=0;points=[[0,0.5],[1,0.5]];portConstraint=eastwest;" parent="zw1SAavDIwvE712rOxfx-1" vertex="1">
          <mxGeometry y="72.06315853721217" width="189" height="24" as="geometry" />
        </mxCell>
        <mxCell id="zw1SAavDIwvE712rOxfx-5" value="+String password" style="text;strokeColor=none;fillColor=none;align=left;verticalAlign=top;spacingLeft=4;spacingRight=4;overflow=hidden;rotatable=0;points=[[0,0.5],[1,0.5]];portConstraint=eastwest;" parent="zw1SAavDIwvE712rOxfx-1" vertex="1">
          <mxGeometry y="96.06315853721217" width="189" height="24" as="geometry" />
        </mxCell>
        <mxCell id="zw1SAavDIwvE712rOxfx-6" value="+String address" style="text;strokeColor=none;fillColor=none;align=left;verticalAlign=top;spacingLeft=4;spacingRight=4;overflow=hidden;rotatable=0;points=[[0,0.5],[1,0.5]];portConstraint=eastwest;" parent="zw1SAavDIwvE712rOxfx-1" vertex="1">
          <mxGeometry y="120.06315853721217" width="189" height="24" as="geometry" />
        </mxCell>
        <mxCell id="zw1SAavDIwvE712rOxfx-7" value="+String phone_number" style="text;strokeColor=none;fillColor=none;align=left;verticalAlign=top;spacingLeft=4;spacingRight=4;overflow=hidden;rotatable=0;points=[[0,0.5],[1,0.5]];portConstraint=eastwest;" parent="zw1SAavDIwvE712rOxfx-1" vertex="1">
          <mxGeometry y="144.0631585372122" width="189" height="24" as="geometry" />
        </mxCell>
        <mxCell id="zw1SAavDIwvE712rOxfx-8" value="+Timestamp created_at" style="text;strokeColor=none;fillColor=none;align=left;verticalAlign=top;spacingLeft=4;spacingRight=4;overflow=hidden;rotatable=0;points=[[0,0.5],[1,0.5]];portConstraint=eastwest;" parent="zw1SAavDIwvE712rOxfx-1" vertex="1">
          <mxGeometry y="168.0631585372122" width="189" height="24" as="geometry" />
        </mxCell>
        <mxCell id="zw1SAavDIwvE712rOxfx-9" value="+Timestamp updated_at" style="text;strokeColor=none;fillColor=none;align=left;verticalAlign=top;spacingLeft=4;spacingRight=4;overflow=hidden;rotatable=0;points=[[0,0.5],[1,0.5]];portConstraint=eastwest;" parent="zw1SAavDIwvE712rOxfx-1" vertex="1">
          <mxGeometry y="192.0631585372122" width="189" height="24" as="geometry" />
        </mxCell>
        <mxCell id="zw1SAavDIwvE712rOxfx-10" style="line;strokeWidth=1;fillColor=none;align=left;verticalAlign=middle;spacingTop=-1;spacingLeft=3;spacingRight=3;rotatable=0;labelPosition=right;points=[];portConstraint=eastwest;strokeColor=inherit;" parent="zw1SAavDIwvE712rOxfx-1" vertex="1">
          <mxGeometry y="216.0631585372122" width="189" height="12" as="geometry" />
        </mxCell>
        <mxCell id="zw1SAavDIwvE712rOxfx-11" value="Role" style="swimlane;fontStyle=1;align=center;verticalAlign=top;childLayout=stackLayout;horizontal=1;startSize=26.91428484235491;horizontalStack=0;resizeParent=1;resizeParentMax=0;resizeLast=0;collapsible=0;marginBottom=0;" parent="1" vertex="1">
          <mxGeometry x="42" y="1025" width="146" height="93.9142848423549" as="geometry" />
        </mxCell>
        <mxCell id="zw1SAavDIwvE712rOxfx-12" value="+int role_id" style="text;strokeColor=none;fillColor=none;align=left;verticalAlign=top;spacingLeft=4;spacingRight=4;overflow=hidden;rotatable=0;points=[[0,0.5],[1,0.5]];portConstraint=eastwest;" parent="zw1SAavDIwvE712rOxfx-11" vertex="1">
          <mxGeometry y="26.91428484235491" width="146" height="27" as="geometry" />
        </mxCell>
        <mxCell id="zw1SAavDIwvE712rOxfx-13" value="+String role_name" style="text;strokeColor=none;fillColor=none;align=left;verticalAlign=top;spacingLeft=4;spacingRight=4;overflow=hidden;rotatable=0;points=[[0,0.5],[1,0.5]];portConstraint=eastwest;" parent="zw1SAavDIwvE712rOxfx-11" vertex="1">
          <mxGeometry y="53.91428484235491" width="146" height="27" as="geometry" />
        </mxCell>
        <mxCell id="zw1SAavDIwvE712rOxfx-14" style="line;strokeWidth=1;fillColor=none;align=left;verticalAlign=middle;spacingTop=-1;spacingLeft=3;spacingRight=3;rotatable=0;labelPosition=right;points=[];portConstraint=eastwest;strokeColor=inherit;" parent="zw1SAavDIwvE712rOxfx-11" vertex="1">
          <mxGeometry y="80.9142848423549" width="146" height="13" as="geometry" />
        </mxCell>
        <mxCell id="zw1SAavDIwvE712rOxfx-15" value="Farmer" style="swimlane;fontStyle=1;align=center;verticalAlign=top;childLayout=stackLayout;horizontal=1;startSize=23.904761904761905;horizontalStack=0;resizeParent=1;resizeParentMax=0;resizeLast=0;collapsible=0;marginBottom=0;" parent="1" vertex="1">
          <mxGeometry x="170" y="303" width="189" height="251.9047619047619" as="geometry" />
        </mxCell>
        <mxCell id="zw1SAavDIwvE712rOxfx-16" value="+int farmer_id" style="text;strokeColor=none;fillColor=none;align=left;verticalAlign=top;spacingLeft=4;spacingRight=4;overflow=hidden;rotatable=0;points=[[0,0.5],[1,0.5]];portConstraint=eastwest;" parent="zw1SAavDIwvE712rOxfx-15" vertex="1">
          <mxGeometry y="23.904761904761905" width="189" height="24" as="geometry" />
        </mxCell>
        <mxCell id="zw1SAavDIwvE712rOxfx-17" value="+int user_id" style="text;strokeColor=none;fillColor=none;align=left;verticalAlign=top;spacingLeft=4;spacingRight=4;overflow=hidden;rotatable=0;points=[[0,0.5],[1,0.5]];portConstraint=eastwest;" parent="zw1SAavDIwvE712rOxfx-15" vertex="1">
          <mxGeometry y="47.904761904761905" width="189" height="24" as="geometry" />
        </mxCell>
        <mxCell id="zw1SAavDIwvE712rOxfx-18" value="+String farm_name" style="text;strokeColor=none;fillColor=none;align=left;verticalAlign=top;spacingLeft=4;spacingRight=4;overflow=hidden;rotatable=0;points=[[0,0.5],[1,0.5]];portConstraint=eastwest;" parent="zw1SAavDIwvE712rOxfx-15" vertex="1">
          <mxGeometry y="71.9047619047619" width="189" height="24" as="geometry" />
        </mxCell>
        <mxCell id="zw1SAavDIwvE712rOxfx-19" value="+String location" style="text;strokeColor=none;fillColor=none;align=left;verticalAlign=top;spacingLeft=4;spacingRight=4;overflow=hidden;rotatable=0;points=[[0,0.5],[1,0.5]];portConstraint=eastwest;" parent="zw1SAavDIwvE712rOxfx-15" vertex="1">
          <mxGeometry y="95.9047619047619" width="189" height="24" as="geometry" />
        </mxCell>
        <mxCell id="zw1SAavDIwvE712rOxfx-20" value="+String type_of_farmer" style="text;strokeColor=none;fillColor=none;align=left;verticalAlign=top;spacingLeft=4;spacingRight=4;overflow=hidden;rotatable=0;points=[[0,0.5],[1,0.5]];portConstraint=eastwest;" parent="zw1SAavDIwvE712rOxfx-15" vertex="1">
          <mxGeometry y="119.9047619047619" width="189" height="24" as="geometry" />
        </mxCell>
        <mxCell id="zw1SAavDIwvE712rOxfx-21" value="+String description" style="text;strokeColor=none;fillColor=none;align=left;verticalAlign=top;spacingLeft=4;spacingRight=4;overflow=hidden;rotatable=0;points=[[0,0.5],[1,0.5]];portConstraint=eastwest;" parent="zw1SAavDIwvE712rOxfx-15" vertex="1">
          <mxGeometry y="143.9047619047619" width="189" height="24" as="geometry" />
        </mxCell>
        <mxCell id="zw1SAavDIwvE712rOxfx-22" value="+JSON media" style="text;strokeColor=none;fillColor=none;align=left;verticalAlign=top;spacingLeft=4;spacingRight=4;overflow=hidden;rotatable=0;points=[[0,0.5],[1,0.5]];portConstraint=eastwest;" parent="zw1SAavDIwvE712rOxfx-15" vertex="1">
          <mxGeometry y="167.9047619047619" width="189" height="24" as="geometry" />
        </mxCell>
        <mxCell id="zw1SAavDIwvE712rOxfx-23" value="+Timestamp created_at" style="text;strokeColor=none;fillColor=none;align=left;verticalAlign=top;spacingLeft=4;spacingRight=4;overflow=hidden;rotatable=0;points=[[0,0.5],[1,0.5]];portConstraint=eastwest;" parent="zw1SAavDIwvE712rOxfx-15" vertex="1">
          <mxGeometry y="191.9047619047619" width="189" height="24" as="geometry" />
        </mxCell>
        <mxCell id="zw1SAavDIwvE712rOxfx-24" value="+Timestamp updated_at" style="text;strokeColor=none;fillColor=none;align=left;verticalAlign=top;spacingLeft=4;spacingRight=4;overflow=hidden;rotatable=0;points=[[0,0.5],[1,0.5]];portConstraint=eastwest;" parent="zw1SAavDIwvE712rOxfx-15" vertex="1">
          <mxGeometry y="215.9047619047619" width="189" height="24" as="geometry" />
        </mxCell>
        <mxCell id="zw1SAavDIwvE712rOxfx-25" style="line;strokeWidth=1;fillColor=none;align=left;verticalAlign=middle;spacingTop=-1;spacingLeft=3;spacingRight=3;rotatable=0;labelPosition=right;points=[];portConstraint=eastwest;strokeColor=inherit;" parent="zw1SAavDIwvE712rOxfx-15" vertex="1">
          <mxGeometry y="239.9047619047619" width="189" height="12" as="geometry" />
        </mxCell>
        <mxCell id="zw1SAavDIwvE712rOxfx-26" value="Product" style="swimlane;fontStyle=1;align=center;verticalAlign=top;childLayout=stackLayout;horizontal=1;startSize=23.57037127459491;horizontalStack=0;resizeParent=1;resizeParentMax=0;resizeLast=0;collapsible=0;marginBottom=0;" parent="1" vertex="1">
          <mxGeometry x="325" y="1285" width="191" height="323.5703712745949" as="geometry" />
        </mxCell>
        <mxCell id="zw1SAavDIwvE712rOxfx-27" value="+int product_id" style="text;strokeColor=none;fillColor=none;align=left;verticalAlign=top;spacingLeft=4;spacingRight=4;overflow=hidden;rotatable=0;points=[[0,0.5],[1,0.5]];portConstraint=eastwest;" parent="zw1SAavDIwvE712rOxfx-26" vertex="1">
          <mxGeometry y="23.57037127459491" width="191" height="24" as="geometry" />
        </mxCell>
        <mxCell id="zw1SAavDIwvE712rOxfx-28" value="+int farmer_id" style="text;strokeColor=none;fillColor=none;align=left;verticalAlign=top;spacingLeft=4;spacingRight=4;overflow=hidden;rotatable=0;points=[[0,0.5],[1,0.5]];portConstraint=eastwest;" parent="zw1SAavDIwvE712rOxfx-26" vertex="1">
          <mxGeometry y="47.570371274594905" width="191" height="24" as="geometry" />
        </mxCell>
        <mxCell id="zw1SAavDIwvE712rOxfx-29" value="+String name" style="text;strokeColor=none;fillColor=none;align=left;verticalAlign=top;spacingLeft=4;spacingRight=4;overflow=hidden;rotatable=0;points=[[0,0.5],[1,0.5]];portConstraint=eastwest;" parent="zw1SAavDIwvE712rOxfx-26" vertex="1">
          <mxGeometry y="71.5703712745949" width="191" height="24" as="geometry" />
        </mxCell>
        <mxCell id="zw1SAavDIwvE712rOxfx-30" value="+String category" style="text;strokeColor=none;fillColor=none;align=left;verticalAlign=top;spacingLeft=4;spacingRight=4;overflow=hidden;rotatable=0;points=[[0,0.5],[1,0.5]];portConstraint=eastwest;" parent="zw1SAavDIwvE712rOxfx-26" vertex="1">
          <mxGeometry y="95.5703712745949" width="191" height="24" as="geometry" />
        </mxCell>
        <mxCell id="zw1SAavDIwvE712rOxfx-31" value="+String description" style="text;strokeColor=none;fillColor=none;align=left;verticalAlign=top;spacingLeft=4;spacingRight=4;overflow=hidden;rotatable=0;points=[[0,0.5],[1,0.5]];portConstraint=eastwest;" parent="zw1SAavDIwvE712rOxfx-26" vertex="1">
          <mxGeometry y="119.5703712745949" width="191" height="24" as="geometry" />
        </mxCell>
        <mxCell id="zw1SAavDIwvE712rOxfx-32" value="+Decimal price_per_unit" style="text;strokeColor=none;fillColor=none;align=left;verticalAlign=top;spacingLeft=4;spacingRight=4;overflow=hidden;rotatable=0;points=[[0,0.5],[1,0.5]];portConstraint=eastwest;" parent="zw1SAavDIwvE712rOxfx-26" vertex="1">
          <mxGeometry y="143.5703712745949" width="191" height="24" as="geometry" />
        </mxCell>
        <mxCell id="zw1SAavDIwvE712rOxfx-33" value="+int stock_quantity" style="text;strokeColor=none;fillColor=none;align=left;verticalAlign=top;spacingLeft=4;spacingRight=4;overflow=hidden;rotatable=0;points=[[0,0.5],[1,0.5]];portConstraint=eastwest;" parent="zw1SAavDIwvE712rOxfx-26" vertex="1">
          <mxGeometry y="167.5703712745949" width="191" height="24" as="geometry" />
        </mxCell>
        <mxCell id="zw1SAavDIwvE712rOxfx-34" value="+Boolean availability" style="text;strokeColor=none;fillColor=none;align=left;verticalAlign=top;spacingLeft=4;spacingRight=4;overflow=hidden;rotatable=0;points=[[0,0.5],[1,0.5]];portConstraint=eastwest;" parent="zw1SAavDIwvE712rOxfx-26" vertex="1">
          <mxGeometry y="191.5703712745949" width="191" height="24" as="geometry" />
        </mxCell>
        <mxCell id="zw1SAavDIwvE712rOxfx-35" value="+String status" style="text;strokeColor=none;fillColor=none;align=left;verticalAlign=top;spacingLeft=4;spacingRight=4;overflow=hidden;rotatable=0;points=[[0,0.5],[1,0.5]];portConstraint=eastwest;" parent="zw1SAavDIwvE712rOxfx-26" vertex="1">
          <mxGeometry y="215.5703712745949" width="191" height="24" as="geometry" />
        </mxCell>
        <mxCell id="zw1SAavDIwvE712rOxfx-36" value="+String delivery_option" style="text;strokeColor=none;fillColor=none;align=left;verticalAlign=top;spacingLeft=4;spacingRight=4;overflow=hidden;rotatable=0;points=[[0,0.5],[1,0.5]];portConstraint=eastwest;" parent="zw1SAavDIwvE712rOxfx-26" vertex="1">
          <mxGeometry y="239.5703712745949" width="191" height="24" as="geometry" />
        </mxCell>
        <mxCell id="zw1SAavDIwvE712rOxfx-37" value="+Timestamp created_at" style="text;strokeColor=none;fillColor=none;align=left;verticalAlign=top;spacingLeft=4;spacingRight=4;overflow=hidden;rotatable=0;points=[[0,0.5],[1,0.5]];portConstraint=eastwest;" parent="zw1SAavDIwvE712rOxfx-26" vertex="1">
          <mxGeometry y="263.5703712745949" width="191" height="24" as="geometry" />
        </mxCell>
        <mxCell id="zw1SAavDIwvE712rOxfx-38" value="+Timestamp updated_at" style="text;strokeColor=none;fillColor=none;align=left;verticalAlign=top;spacingLeft=4;spacingRight=4;overflow=hidden;rotatable=0;points=[[0,0.5],[1,0.5]];portConstraint=eastwest;" parent="zw1SAavDIwvE712rOxfx-26" vertex="1">
          <mxGeometry y="287.5703712745949" width="191" height="24" as="geometry" />
        </mxCell>
        <mxCell id="zw1SAavDIwvE712rOxfx-39" style="line;strokeWidth=1;fillColor=none;align=left;verticalAlign=middle;spacingTop=-1;spacingLeft=3;spacingRight=3;rotatable=0;labelPosition=right;points=[];portConstraint=eastwest;strokeColor=inherit;" parent="zw1SAavDIwvE712rOxfx-26" vertex="1">
          <mxGeometry y="311.5703712745949" width="191" height="12" as="geometry" />
        </mxCell>
        <mxCell id="zw1SAavDIwvE712rOxfx-40" value="Crop" style="swimlane;fontStyle=1;align=center;verticalAlign=top;childLayout=stackLayout;horizontal=1;startSize=24.06315853721217;horizontalStack=0;resizeParent=1;resizeParentMax=0;resizeLast=0;collapsible=0;marginBottom=0;" parent="1" vertex="1">
          <mxGeometry x="700" y="1300" width="189" height="228.0631585372122" as="geometry" />
        </mxCell>
        <mxCell id="zw1SAavDIwvE712rOxfx-41" value="+int crop_id" style="text;strokeColor=none;fillColor=none;align=left;verticalAlign=top;spacingLeft=4;spacingRight=4;overflow=hidden;rotatable=0;points=[[0,0.5],[1,0.5]];portConstraint=eastwest;" parent="zw1SAavDIwvE712rOxfx-40" vertex="1">
          <mxGeometry y="24.06315853721217" width="189" height="24" as="geometry" />
        </mxCell>
        <mxCell id="zw1SAavDIwvE712rOxfx-42" value="+int product_id" style="text;strokeColor=none;fillColor=none;align=left;verticalAlign=top;spacingLeft=4;spacingRight=4;overflow=hidden;rotatable=0;points=[[0,0.5],[1,0.5]];portConstraint=eastwest;" parent="zw1SAavDIwvE712rOxfx-40" vertex="1">
          <mxGeometry y="48.063158537212175" width="189" height="24" as="geometry" />
        </mxCell>
        <mxCell id="zw1SAavDIwvE712rOxfx-43" value="+Date planting_date" style="text;strokeColor=none;fillColor=none;align=left;verticalAlign=top;spacingLeft=4;spacingRight=4;overflow=hidden;rotatable=0;points=[[0,0.5],[1,0.5]];portConstraint=eastwest;" parent="zw1SAavDIwvE712rOxfx-40" vertex="1">
          <mxGeometry y="72.06315853721217" width="189" height="24" as="geometry" />
        </mxCell>
        <mxCell id="zw1SAavDIwvE712rOxfx-44" value="+Date expected_harvest" style="text;strokeColor=none;fillColor=none;align=left;verticalAlign=top;spacingLeft=4;spacingRight=4;overflow=hidden;rotatable=0;points=[[0,0.5],[1,0.5]];portConstraint=eastwest;" parent="zw1SAavDIwvE712rOxfx-40" vertex="1">
          <mxGeometry y="96.06315853721217" width="189" height="24" as="geometry" />
        </mxCell>
        <mxCell id="zw1SAavDIwvE712rOxfx-45" value="+int growth_duration" style="text;strokeColor=none;fillColor=none;align=left;verticalAlign=top;spacingLeft=4;spacingRight=4;overflow=hidden;rotatable=0;points=[[0,0.5],[1,0.5]];portConstraint=eastwest;" parent="zw1SAavDIwvE712rOxfx-40" vertex="1">
          <mxGeometry y="120.06315853721217" width="189" height="24" as="geometry" />
        </mxCell>
        <mxCell id="zw1SAavDIwvE712rOxfx-46" value="+String current_status" style="text;strokeColor=none;fillColor=none;align=left;verticalAlign=top;spacingLeft=4;spacingRight=4;overflow=hidden;rotatable=0;points=[[0,0.5],[1,0.5]];portConstraint=eastwest;" parent="zw1SAavDIwvE712rOxfx-40" vertex="1">
          <mxGeometry y="144.0631585372122" width="189" height="24" as="geometry" />
        </mxCell>
        <mxCell id="zw1SAavDIwvE712rOxfx-47" value="+Timestamp created_at" style="text;strokeColor=none;fillColor=none;align=left;verticalAlign=top;spacingLeft=4;spacingRight=4;overflow=hidden;rotatable=0;points=[[0,0.5],[1,0.5]];portConstraint=eastwest;" parent="zw1SAavDIwvE712rOxfx-40" vertex="1">
          <mxGeometry y="168.0631585372122" width="189" height="24" as="geometry" />
        </mxCell>
        <mxCell id="zw1SAavDIwvE712rOxfx-48" value="+Timestamp updated_at" style="text;strokeColor=none;fillColor=none;align=left;verticalAlign=top;spacingLeft=4;spacingRight=4;overflow=hidden;rotatable=0;points=[[0,0.5],[1,0.5]];portConstraint=eastwest;" parent="zw1SAavDIwvE712rOxfx-40" vertex="1">
          <mxGeometry y="192.0631585372122" width="189" height="24" as="geometry" />
        </mxCell>
        <mxCell id="zw1SAavDIwvE712rOxfx-49" style="line;strokeWidth=1;fillColor=none;align=left;verticalAlign=middle;spacingTop=-1;spacingLeft=3;spacingRight=3;rotatable=0;labelPosition=right;points=[];portConstraint=eastwest;strokeColor=inherit;" parent="zw1SAavDIwvE712rOxfx-40" vertex="1">
          <mxGeometry y="216.0631585372122" width="189" height="12" as="geometry" />
        </mxCell>
        <mxCell id="zw1SAavDIwvE712rOxfx-50" value="ChemicalUsage" style="swimlane;fontStyle=1;align=center;verticalAlign=top;childLayout=stackLayout;horizontal=1;startSize=24.06315853721217;horizontalStack=0;resizeParent=1;resizeParentMax=0;resizeLast=0;collapsible=0;marginBottom=0;" parent="1" vertex="1">
          <mxGeometry x="1020" y="1300" width="189" height="228.0631585372122" as="geometry" />
        </mxCell>
        <mxCell id="zw1SAavDIwvE712rOxfx-51" value="+int chemical_usage_id" style="text;strokeColor=none;fillColor=none;align=left;verticalAlign=top;spacingLeft=4;spacingRight=4;overflow=hidden;rotatable=0;points=[[0,0.5],[1,0.5]];portConstraint=eastwest;" parent="zw1SAavDIwvE712rOxfx-50" vertex="1">
          <mxGeometry y="24.06315853721217" width="189" height="24" as="geometry" />
        </mxCell>
        <mxCell id="zw1SAavDIwvE712rOxfx-52" value="+int crop_id" style="text;strokeColor=none;fillColor=none;align=left;verticalAlign=top;spacingLeft=4;spacingRight=4;overflow=hidden;rotatable=0;points=[[0,0.5],[1,0.5]];portConstraint=eastwest;" parent="zw1SAavDIwvE712rOxfx-50" vertex="1">
          <mxGeometry y="48.063158537212175" width="189" height="24" as="geometry" />
        </mxCell>
        <mxCell id="zw1SAavDIwvE712rOxfx-53" value="+String chemical_name" style="text;strokeColor=none;fillColor=none;align=left;verticalAlign=top;spacingLeft=4;spacingRight=4;overflow=hidden;rotatable=0;points=[[0,0.5],[1,0.5]];portConstraint=eastwest;" parent="zw1SAavDIwvE712rOxfx-50" vertex="1">
          <mxGeometry y="72.06315853721217" width="189" height="24" as="geometry" />
        </mxCell>
        <mxCell id="zw1SAavDIwvE712rOxfx-54" value="+Date date_applied" style="text;strokeColor=none;fillColor=none;align=left;verticalAlign=top;spacingLeft=4;spacingRight=4;overflow=hidden;rotatable=0;points=[[0,0.5],[1,0.5]];portConstraint=eastwest;" parent="zw1SAavDIwvE712rOxfx-50" vertex="1">
          <mxGeometry y="96.06315853721217" width="189" height="24" as="geometry" />
        </mxCell>
        <mxCell id="zw1SAavDIwvE712rOxfx-55" value="+String purpose" style="text;strokeColor=none;fillColor=none;align=left;verticalAlign=top;spacingLeft=4;spacingRight=4;overflow=hidden;rotatable=0;points=[[0,0.5],[1,0.5]];portConstraint=eastwest;" parent="zw1SAavDIwvE712rOxfx-50" vertex="1">
          <mxGeometry y="120.06315853721217" width="189" height="24" as="geometry" />
        </mxCell>
        <mxCell id="zw1SAavDIwvE712rOxfx-56" value="+Decimal amount_used" style="text;strokeColor=none;fillColor=none;align=left;verticalAlign=top;spacingLeft=4;spacingRight=4;overflow=hidden;rotatable=0;points=[[0,0.5],[1,0.5]];portConstraint=eastwest;" parent="zw1SAavDIwvE712rOxfx-50" vertex="1">
          <mxGeometry y="144.0631585372122" width="189" height="24" as="geometry" />
        </mxCell>
        <mxCell id="zw1SAavDIwvE712rOxfx-57" value="+Timestamp created_at" style="text;strokeColor=none;fillColor=none;align=left;verticalAlign=top;spacingLeft=4;spacingRight=4;overflow=hidden;rotatable=0;points=[[0,0.5],[1,0.5]];portConstraint=eastwest;" parent="zw1SAavDIwvE712rOxfx-50" vertex="1">
          <mxGeometry y="168.0631585372122" width="189" height="24" as="geometry" />
        </mxCell>
        <mxCell id="zw1SAavDIwvE712rOxfx-58" value="+Timestamp updated_at" style="text;strokeColor=none;fillColor=none;align=left;verticalAlign=top;spacingLeft=4;spacingRight=4;overflow=hidden;rotatable=0;points=[[0,0.5],[1,0.5]];portConstraint=eastwest;" parent="zw1SAavDIwvE712rOxfx-50" vertex="1">
          <mxGeometry y="192.0631585372122" width="189" height="24" as="geometry" />
        </mxCell>
        <mxCell id="zw1SAavDIwvE712rOxfx-59" style="line;strokeWidth=1;fillColor=none;align=left;verticalAlign=middle;spacingTop=-1;spacingLeft=3;spacingRight=3;rotatable=0;labelPosition=right;points=[];portConstraint=eastwest;strokeColor=inherit;" parent="zw1SAavDIwvE712rOxfx-50" vertex="1">
          <mxGeometry y="216.0631585372122" width="189" height="12" as="geometry" />
        </mxCell>
        <mxCell id="zw1SAavDIwvE712rOxfx-60" value="Order" style="swimlane;fontStyle=1;align=center;verticalAlign=top;childLayout=stackLayout;horizontal=1;startSize=23.773912512737773;horizontalStack=0;resizeParent=1;resizeParentMax=0;resizeLast=0;collapsible=0;marginBottom=0;" parent="1" vertex="1">
          <mxGeometry x="331" y="890" width="189" height="275.77391251273775" as="geometry" />
        </mxCell>
        <mxCell id="zw1SAavDIwvE712rOxfx-61" value="+int order_id" style="text;strokeColor=none;fillColor=none;align=left;verticalAlign=top;spacingLeft=4;spacingRight=4;overflow=hidden;rotatable=0;points=[[0,0.5],[1,0.5]];portConstraint=eastwest;" parent="zw1SAavDIwvE712rOxfx-60" vertex="1">
          <mxGeometry y="23.773912512737773" width="189" height="24" as="geometry" />
        </mxCell>
        <mxCell id="zw1SAavDIwvE712rOxfx-62" value="+int user_id" style="text;strokeColor=none;fillColor=none;align=left;verticalAlign=top;spacingLeft=4;spacingRight=4;overflow=hidden;rotatable=0;points=[[0,0.5],[1,0.5]];portConstraint=eastwest;" parent="zw1SAavDIwvE712rOxfx-60" vertex="1">
          <mxGeometry y="47.77391251273777" width="189" height="24" as="geometry" />
        </mxCell>
        <mxCell id="zw1SAavDIwvE712rOxfx-63" value="+int product_id" style="text;strokeColor=none;fillColor=none;align=left;verticalAlign=top;spacingLeft=4;spacingRight=4;overflow=hidden;rotatable=0;points=[[0,0.5],[1,0.5]];portConstraint=eastwest;" parent="zw1SAavDIwvE712rOxfx-60" vertex="1">
          <mxGeometry y="71.77391251273778" width="189" height="24" as="geometry" />
        </mxCell>
        <mxCell id="zw1SAavDIwvE712rOxfx-64" value="+int quantity_ordered" style="text;strokeColor=none;fillColor=none;align=left;verticalAlign=top;spacingLeft=4;spacingRight=4;overflow=hidden;rotatable=0;points=[[0,0.5],[1,0.5]];portConstraint=eastwest;" parent="zw1SAavDIwvE712rOxfx-60" vertex="1">
          <mxGeometry y="95.77391251273778" width="189" height="24" as="geometry" />
        </mxCell>
        <mxCell id="zw1SAavDIwvE712rOxfx-65" value="+Decimal total_price" style="text;strokeColor=none;fillColor=none;align=left;verticalAlign=top;spacingLeft=4;spacingRight=4;overflow=hidden;rotatable=0;points=[[0,0.5],[1,0.5]];portConstraint=eastwest;" parent="zw1SAavDIwvE712rOxfx-60" vertex="1">
          <mxGeometry y="119.77391251273778" width="189" height="24" as="geometry" />
        </mxCell>
        <mxCell id="zw1SAavDIwvE712rOxfx-66" value="+Date ordered_date" style="text;strokeColor=none;fillColor=none;align=left;verticalAlign=top;spacingLeft=4;spacingRight=4;overflow=hidden;rotatable=0;points=[[0,0.5],[1,0.5]];portConstraint=eastwest;" parent="zw1SAavDIwvE712rOxfx-60" vertex="1">
          <mxGeometry y="143.77391251273778" width="189" height="24" as="geometry" />
        </mxCell>
        <mxCell id="zw1SAavDIwvE712rOxfx-67" value="+String delivery_option" style="text;strokeColor=none;fillColor=none;align=left;verticalAlign=top;spacingLeft=4;spacingRight=4;overflow=hidden;rotatable=0;points=[[0,0.5],[1,0.5]];portConstraint=eastwest;" parent="zw1SAavDIwvE712rOxfx-60" vertex="1">
          <mxGeometry y="167.77391251273778" width="189" height="24" as="geometry" />
        </mxCell>
        <mxCell id="zw1SAavDIwvE712rOxfx-68" value="+String ordered_status" style="text;strokeColor=none;fillColor=none;align=left;verticalAlign=top;spacingLeft=4;spacingRight=4;overflow=hidden;rotatable=0;points=[[0,0.5],[1,0.5]];portConstraint=eastwest;" parent="zw1SAavDIwvE712rOxfx-60" vertex="1">
          <mxGeometry y="191.77391251273778" width="189" height="24" as="geometry" />
        </mxCell>
        <mxCell id="zw1SAavDIwvE712rOxfx-69" value="+Timestamp created_at" style="text;strokeColor=none;fillColor=none;align=left;verticalAlign=top;spacingLeft=4;spacingRight=4;overflow=hidden;rotatable=0;points=[[0,0.5],[1,0.5]];portConstraint=eastwest;" parent="zw1SAavDIwvE712rOxfx-60" vertex="1">
          <mxGeometry y="215.77391251273778" width="189" height="24" as="geometry" />
        </mxCell>
        <mxCell id="zw1SAavDIwvE712rOxfx-70" value="+Timestamp updated_at" style="text;strokeColor=none;fillColor=none;align=left;verticalAlign=top;spacingLeft=4;spacingRight=4;overflow=hidden;rotatable=0;points=[[0,0.5],[1,0.5]];portConstraint=eastwest;" parent="zw1SAavDIwvE712rOxfx-60" vertex="1">
          <mxGeometry y="239.77391251273778" width="189" height="24" as="geometry" />
        </mxCell>
        <mxCell id="zw1SAavDIwvE712rOxfx-71" style="line;strokeWidth=1;fillColor=none;align=left;verticalAlign=middle;spacingTop=-1;spacingLeft=3;spacingRight=3;rotatable=0;labelPosition=right;points=[];portConstraint=eastwest;strokeColor=inherit;" parent="zw1SAavDIwvE712rOxfx-60" vertex="1">
          <mxGeometry y="263.77391251273775" width="189" height="12" as="geometry" />
        </mxCell>
        <mxCell id="zw1SAavDIwvE712rOxfx-72" value="Media" style="swimlane;fontStyle=1;align=center;verticalAlign=top;childLayout=stackLayout;horizontal=1;startSize=24.258823170381433;horizontalStack=0;resizeParent=1;resizeParentMax=0;resizeLast=0;collapsible=0;marginBottom=0;" parent="1" vertex="1">
          <mxGeometry x="170" y="20" width="189" height="204.25882317038145" as="geometry" />
        </mxCell>
        <mxCell id="zw1SAavDIwvE712rOxfx-73" value="+int media_id" style="text;strokeColor=none;fillColor=none;align=left;verticalAlign=top;spacingLeft=4;spacingRight=4;overflow=hidden;rotatable=0;points=[[0,0.5],[1,0.5]];portConstraint=eastwest;" parent="zw1SAavDIwvE712rOxfx-72" vertex="1">
          <mxGeometry y="24.258823170381433" width="189" height="24" as="geometry" />
        </mxCell>
        <mxCell id="zw1SAavDIwvE712rOxfx-74" value="+int related_entity_id" style="text;strokeColor=none;fillColor=none;align=left;verticalAlign=top;spacingLeft=4;spacingRight=4;overflow=hidden;rotatable=0;points=[[0,0.5],[1,0.5]];portConstraint=eastwest;" parent="zw1SAavDIwvE712rOxfx-72" vertex="1">
          <mxGeometry y="48.25882317038143" width="189" height="24" as="geometry" />
        </mxCell>
        <mxCell id="zw1SAavDIwvE712rOxfx-75" value="+String entity_type" style="text;strokeColor=none;fillColor=none;align=left;verticalAlign=top;spacingLeft=4;spacingRight=4;overflow=hidden;rotatable=0;points=[[0,0.5],[1,0.5]];portConstraint=eastwest;" parent="zw1SAavDIwvE712rOxfx-72" vertex="1">
          <mxGeometry y="72.25882317038143" width="189" height="24" as="geometry" />
        </mxCell>
        <mxCell id="zw1SAavDIwvE712rOxfx-76" value="+String media_type" style="text;strokeColor=none;fillColor=none;align=left;verticalAlign=top;spacingLeft=4;spacingRight=4;overflow=hidden;rotatable=0;points=[[0,0.5],[1,0.5]];portConstraint=eastwest;" parent="zw1SAavDIwvE712rOxfx-72" vertex="1">
          <mxGeometry y="96.25882317038143" width="189" height="24" as="geometry" />
        </mxCell>
        <mxCell id="zw1SAavDIwvE712rOxfx-77" value="+String file_url" style="text;strokeColor=none;fillColor=none;align=left;verticalAlign=top;spacingLeft=4;spacingRight=4;overflow=hidden;rotatable=0;points=[[0,0.5],[1,0.5]];portConstraint=eastwest;" parent="zw1SAavDIwvE712rOxfx-72" vertex="1">
          <mxGeometry y="120.25882317038143" width="189" height="24" as="geometry" />
        </mxCell>
        <mxCell id="zw1SAavDIwvE712rOxfx-78" value="+Timestamp created_at" style="text;strokeColor=none;fillColor=none;align=left;verticalAlign=top;spacingLeft=4;spacingRight=4;overflow=hidden;rotatable=0;points=[[0,0.5],[1,0.5]];portConstraint=eastwest;" parent="zw1SAavDIwvE712rOxfx-72" vertex="1">
          <mxGeometry y="144.25882317038145" width="189" height="24" as="geometry" />
        </mxCell>
        <mxCell id="zw1SAavDIwvE712rOxfx-79" value="+Timestamp updated_at" style="text;strokeColor=none;fillColor=none;align=left;verticalAlign=top;spacingLeft=4;spacingRight=4;overflow=hidden;rotatable=0;points=[[0,0.5],[1,0.5]];portConstraint=eastwest;" parent="zw1SAavDIwvE712rOxfx-72" vertex="1">
          <mxGeometry y="168.25882317038145" width="189" height="24" as="geometry" />
        </mxCell>
        <mxCell id="zw1SAavDIwvE712rOxfx-80" style="line;strokeWidth=1;fillColor=none;align=left;verticalAlign=middle;spacingTop=-1;spacingLeft=3;spacingRight=3;rotatable=0;labelPosition=right;points=[];portConstraint=eastwest;strokeColor=inherit;" parent="zw1SAavDIwvE712rOxfx-72" vertex="1">
          <mxGeometry y="192.25882317038145" width="189" height="12" as="geometry" />
        </mxCell>
        <mxCell id="zw1SAavDIwvE712rOxfx-81" value="places" style="curved=1;startArrow=none;endArrow=diamondThin;endSize=14;endFill=0;exitX=1;exitY=0.7;entryX=0.5;entryY=0;rounded=0;" parent="1" source="zw1SAavDIwvE712rOxfx-1" target="zw1SAavDIwvE712rOxfx-60" edge="1">
          <mxGeometry relative="1" as="geometry">
            <Array as="points">
              <mxPoint x="420" y="901" />
            </Array>
          </mxGeometry>
        </mxCell>
        <mxCell id="zw1SAavDIwvE712rOxfx-82" value="1" style="edgeLabel;resizable=0;labelBackgroundColor=none;fontSize=12;align=left;verticalAlign=top;" parent="zw1SAavDIwvE712rOxfx-81" vertex="1">
          <mxGeometry x="-1" relative="1" as="geometry" />
        </mxCell>
        <mxCell id="zw1SAavDIwvE712rOxfx-83" value="0..*" style="edgeLabel;resizable=0;labelBackgroundColor=none;fontSize=12;align=right;verticalAlign=bottom;" parent="zw1SAavDIwvE712rOxfx-81" vertex="1">
          <mxGeometry x="1" relative="1" as="geometry" />
        </mxCell>
        <mxCell id="zw1SAavDIwvE712rOxfx-84" value="owns" style="curved=1;startArrow=none;endArrow=diamondThin;endSize=14;endFill=0;exitX=0.61;exitY=1;entryX=0;entryY=0.05;rounded=0;" parent="1" source="zw1SAavDIwvE712rOxfx-15" target="zw1SAavDIwvE712rOxfx-26" edge="1">
          <mxGeometry relative="1" as="geometry">
            <Array as="points">
              <mxPoint x="291" y="596" />
              <mxPoint x="291" y="1251" />
            </Array>
          </mxGeometry>
        </mxCell>
        <mxCell id="zw1SAavDIwvE712rOxfx-85" value="1" style="edgeLabel;resizable=0;labelBackgroundColor=none;fontSize=12;align=right;verticalAlign=top;" parent="zw1SAavDIwvE712rOxfx-84" vertex="1">
          <mxGeometry x="-1" relative="1" as="geometry" />
        </mxCell>
        <mxCell id="zw1SAavDIwvE712rOxfx-86" value="0..*" style="edgeLabel;resizable=0;labelBackgroundColor=none;fontSize=12;align=left;verticalAlign=bottom;" parent="zw1SAavDIwvE712rOxfx-84" vertex="1">
          <mxGeometry x="1" relative="1" as="geometry" />
        </mxCell>
        <mxCell id="zw1SAavDIwvE712rOxfx-87" value="produces" style="curved=1;startArrow=none;endArrow=diamondThin;endSize=14;endFill=0;exitX=0.993;exitY=0.944;rounded=0;entryX=0;entryY=0.164;entryDx=0;entryDy=0;entryPerimeter=0;exitDx=0;exitDy=0;exitPerimeter=0;" parent="1" source="zw1SAavDIwvE712rOxfx-32" edge="1">
          <mxGeometry relative="1" as="geometry">
            <Array as="points">
              <mxPoint x="711.59" y="1370" />
            </Array>
            <mxPoint x="520.0000000000001" y="1444.0103712745947" as="sourcePoint" />
            <mxPoint x="691.59" y="1409.9991585372122" as="targetPoint" />
          </mxGeometry>
        </mxCell>
        <mxCell id="zw1SAavDIwvE712rOxfx-88" value="1" style="edgeLabel;resizable=0;labelBackgroundColor=none;fontSize=12;align=right;verticalAlign=top;" parent="zw1SAavDIwvE712rOxfx-87" vertex="1">
          <mxGeometry x="-1" relative="1" as="geometry">
            <mxPoint x="12" y="-4" as="offset" />
          </mxGeometry>
        </mxCell>
        <mxCell id="zw1SAavDIwvE712rOxfx-89" value="0..*" style="edgeLabel;resizable=0;labelBackgroundColor=none;fontSize=12;align=left;verticalAlign=bottom;" parent="zw1SAavDIwvE712rOxfx-87" vertex="1">
          <mxGeometry x="1" relative="1" as="geometry">
            <mxPoint x="-10" y="20" as="offset" />
          </mxGeometry>
        </mxCell>
        <mxCell id="zw1SAavDIwvE712rOxfx-90" value="uses" style="curved=1;startArrow=none;endArrow=diamondThin;endSize=14;endFill=0;exitX=0.988;exitY=0.872;rounded=0;entryX=0.003;entryY=0.339;entryDx=0;entryDy=0;entryPerimeter=0;exitDx=0;exitDy=0;exitPerimeter=0;" parent="1" source="zw1SAavDIwvE712rOxfx-47" target="zw1SAavDIwvE712rOxfx-54" edge="1">
          <mxGeometry relative="1" as="geometry">
            <Array as="points">
              <mxPoint x="1000" y="1408" />
            </Array>
            <mxPoint x="1010" y="1410" as="targetPoint" />
          </mxGeometry>
        </mxCell>
        <mxCell id="zw1SAavDIwvE712rOxfx-91" value="1" style="edgeLabel;resizable=0;labelBackgroundColor=none;fontSize=12;align=right;verticalAlign=top;" parent="zw1SAavDIwvE712rOxfx-90" vertex="1">
          <mxGeometry x="-1" relative="1" as="geometry">
            <mxPoint x="13" y="-9" as="offset" />
          </mxGeometry>
        </mxCell>
        <mxCell id="zw1SAavDIwvE712rOxfx-92" value="0..*" style="edgeLabel;resizable=0;labelBackgroundColor=none;fontSize=12;align=left;verticalAlign=bottom;" parent="zw1SAavDIwvE712rOxfx-90" vertex="1">
          <mxGeometry x="1" relative="1" as="geometry">
            <mxPoint x="-30" as="offset" />
          </mxGeometry>
        </mxCell>
        <mxCell id="zw1SAavDIwvE712rOxfx-93" value="contains" style="curved=1;startArrow=none;endArrow=diamondThin;endSize=14;endFill=0;exitX=0.5;exitY=1;entryX=0.5;entryY=0;rounded=0;" parent="1" source="zw1SAavDIwvE712rOxfx-60" target="zw1SAavDIwvE712rOxfx-26" edge="1">
          <mxGeometry relative="1" as="geometry">
            <Array as="points" />
          </mxGeometry>
        </mxCell>
        <mxCell id="zw1SAavDIwvE712rOxfx-94" value="1" style="edgeLabel;resizable=0;labelBackgroundColor=none;fontSize=12;align=right;verticalAlign=top;" parent="zw1SAavDIwvE712rOxfx-93" vertex="1">
          <mxGeometry x="-1" relative="1" as="geometry" />
        </mxCell>
        <mxCell id="zw1SAavDIwvE712rOxfx-95" value="1" style="edgeLabel;resizable=0;labelBackgroundColor=none;fontSize=12;align=left;verticalAlign=bottom;" parent="zw1SAavDIwvE712rOxfx-93" vertex="1">
          <mxGeometry x="1" relative="1" as="geometry" />
        </mxCell>
        <mxCell id="zw1SAavDIwvE712rOxfx-96" value="&quot;relates to&quot;" style="curved=1;startArrow=none;endArrow=diamondThin;endSize=14;endFill=0;exitX=0.5;exitY=1;entryX=0.5;entryY=0;rounded=0;" parent="1" source="zw1SAavDIwvE712rOxfx-72" target="zw1SAavDIwvE712rOxfx-15" edge="1">
          <mxGeometry x="-0.0922" y="6" relative="1" as="geometry">
            <Array as="points" />
            <mxPoint as="offset" />
          </mxGeometry>
        </mxCell>
        <mxCell id="zw1SAavDIwvE712rOxfx-97" value="0..*" style="edgeLabel;resizable=0;labelBackgroundColor=none;fontSize=12;align=right;verticalAlign=top;" parent="zw1SAavDIwvE712rOxfx-96" vertex="1">
          <mxGeometry x="-1" relative="1" as="geometry" />
        </mxCell>
        <mxCell id="zw1SAavDIwvE712rOxfx-98" value="1" style="edgeLabel;resizable=0;labelBackgroundColor=none;fontSize=12;align=left;verticalAlign=bottom;" parent="zw1SAavDIwvE712rOxfx-96" vertex="1">
          <mxGeometry x="1" relative="1" as="geometry" />
        </mxCell>
        <mxCell id="zw1SAavDIwvE712rOxfx-99" value="&quot;relates to&quot;" style="curved=1;startArrow=none;endArrow=diamondThin;endSize=14;endFill=0;exitX=1;exitY=0.72;entryX=1;entryY=0.05;rounded=0;" parent="1" source="zw1SAavDIwvE712rOxfx-72" target="zw1SAavDIwvE712rOxfx-26" edge="1">
          <mxGeometry relative="1" as="geometry">
            <Array as="points">
              <mxPoint x="550" y="268" />
              <mxPoint x="550" y="1251" />
            </Array>
          </mxGeometry>
        </mxCell>
        <mxCell id="zw1SAavDIwvE712rOxfx-100" value="0..*" style="edgeLabel;resizable=0;labelBackgroundColor=none;fontSize=12;align=right;verticalAlign=top;" parent="zw1SAavDIwvE712rOxfx-99" vertex="1">
          <mxGeometry x="-1" relative="1" as="geometry" />
        </mxCell>
        <mxCell id="zw1SAavDIwvE712rOxfx-101" value="1" style="edgeLabel;resizable=0;labelBackgroundColor=none;fontSize=12;align=left;verticalAlign=bottom;" parent="zw1SAavDIwvE712rOxfx-99" vertex="1">
          <mxGeometry x="1" relative="1" as="geometry" />
        </mxCell>
        <mxCell id="zw1SAavDIwvE712rOxfx-102" value="&quot;relates to&quot;" style="curved=1;startArrow=none;endArrow=diamondThin;endSize=14;endFill=0;exitX=0;exitY=0.85;entryX=0.39;entryY=0;rounded=0;" parent="1" source="zw1SAavDIwvE712rOxfx-72" target="zw1SAavDIwvE712rOxfx-1" edge="1">
          <mxGeometry relative="1" as="geometry">
            <Array as="points">
              <mxPoint x="88" y="268" />
              <mxPoint x="88" y="596" />
            </Array>
          </mxGeometry>
        </mxCell>
        <mxCell id="zw1SAavDIwvE712rOxfx-103" value="0..*" style="edgeLabel;resizable=0;labelBackgroundColor=none;fontSize=12;align=right;verticalAlign=top;" parent="zw1SAavDIwvE712rOxfx-102" vertex="1">
          <mxGeometry x="-1" relative="1" as="geometry" />
        </mxCell>
        <mxCell id="zw1SAavDIwvE712rOxfx-104" value="1" style="edgeLabel;resizable=0;labelBackgroundColor=none;fontSize=12;align=left;verticalAlign=bottom;" parent="zw1SAavDIwvE712rOxfx-102" vertex="1">
          <mxGeometry x="1" relative="1" as="geometry" />
        </mxCell>
        <mxCell id="zw1SAavDIwvE712rOxfx-105" value="has" style="curved=1;startArrow=none;endArrow=diamondThin;endSize=14;endFill=0;exitX=0.5;exitY=1;entryX=0.5;entryY=0;rounded=0;" parent="1" source="zw1SAavDIwvE712rOxfx-1" target="zw1SAavDIwvE712rOxfx-11" edge="1">
          <mxGeometry relative="1" as="geometry">
            <Array as="points" />
          </mxGeometry>
        </mxCell>
        <mxCell id="zw1SAavDIwvE712rOxfx-106" value="1" style="edgeLabel;resizable=0;labelBackgroundColor=none;fontSize=12;align=right;verticalAlign=top;" parent="zw1SAavDIwvE712rOxfx-105" vertex="1">
          <mxGeometry x="-1" relative="1" as="geometry" />
        </mxCell>
        <mxCell id="zw1SAavDIwvE712rOxfx-107" value="1..*" style="edgeLabel;resizable=0;labelBackgroundColor=none;fontSize=12;align=left;verticalAlign=bottom;" parent="zw1SAavDIwvE712rOxfx-105" vertex="1">
          <mxGeometry x="1" relative="1" as="geometry" />
        </mxCell>
        <mxCell id="zw1SAavDIwvE712rOxfx-108" value="&quot;extends&quot;" style="curved=1;startArrow=none;endArrow=diamondThin;endSize=14;endFill=0;exitX=0.23;exitY=1;entryX=0.85;entryY=0;rounded=0;" parent="1" source="zw1SAavDIwvE712rOxfx-15" target="zw1SAavDIwvE712rOxfx-1" edge="1">
          <mxGeometry relative="1" as="geometry">
            <Array as="points">
              <mxPoint x="199" y="596" />
            </Array>
          </mxGeometry>
        </mxCell>
        <mxCell id="zw1SAavDIwvE712rOxfx-109" value="1" style="edgeLabel;resizable=0;labelBackgroundColor=none;fontSize=12;align=right;verticalAlign=top;" parent="zw1SAavDIwvE712rOxfx-108" vertex="1">
          <mxGeometry x="-1" relative="1" as="geometry" />
        </mxCell>
        <mxCell id="zw1SAavDIwvE712rOxfx-110" value="1" style="edgeLabel;resizable=0;labelBackgroundColor=none;fontSize=12;align=left;verticalAlign=bottom;" parent="zw1SAavDIwvE712rOxfx-108" vertex="1">
          <mxGeometry x="1" relative="1" as="geometry" />
        </mxCell>
      </root>
    </mxGraphModel>
  </diagram>
</mxfile>
